/* XPM */
static char *c5c91551b6f54a869313e4028ffbb768anOVt1KIKUYaxMlf[] = {
/* columns rows colors chars-per-pixel */
"32 32 3 1 ",
"  c #554134",
". c #614B3B",
"X c #725949",
/* pixels */
"........................XX......",
"          ..................    ",
"          ..................    ",
"....................XX..........",
"....................XX..........",
"..XX............................",
"..XX............................",
"................................",
"................................",
"............        ............",
"............        ............",
"..            ..................",
"..            ..................",
"................................",
"................................",
"................................",
"................................",
"................XX........      ",
"................XX........      ",
"..............XXXX..............",
"..............XXXX..............",
"        ....................XXXX",
"        ....................XXXX",
"....          ..............XXXX",
"....          ..............XXXX",
"..........................      ",
"..........................      ",
"....................      ......",
"....................      ......",
"............        ............",
"............        ............",
"........    ............XX......"
};
