/* XPM */
static char *_cde6a1490d2418cbb5a881b5882a0c7vcNz1L7HWY2enldP[] = {
/* columns rows colors chars-per-pixel */
"32 32 68 1 ",
"  c None",
". c black",
"X c #000300",
"o c #000500",
"O c #0F0000",
"+ c #000900",
"@ c #010F01",
"# c #190000",
"$ c #1B0000",
"% c #1D0000",
"& c #1E0000",
"* c #001100",
"= c #051604",
"- c #031D03",
"; c #031E03",
": c #220000",
"> c #250000",
", c #260000",
"< c #2B0000",
"1 c #300000",
"2 c #340000",
"3 c #370000",
"4 c #0A2708",
"5 c #082A08",
"6 c #053805",
"7 c #133713",
"8 c #470000",
"9 c #480000",
"0 c #530000",
"q c #590000",
"w c #610000",
"e c #670000",
"r c #7B0000",
"t c #663300",
"y c #673300",
"u c #763300",
"i c #124C12",
"p c #214021",
"a c #2A4C2A",
"s c #296329",
"d c #487148",
"f c #880000",
"g c #A20000",
"h c #B30500",
"j c #8E3300",
"k c #973300",
"l c #B32A00",
"z c #A73300",
"x c #C90000",
"c c #DF0000",
"v c red",
"b c #FF0900",
"n c #FF0D00",
"m c #FF1800",
"M c #D33300",
"N c #FF3A00",
"B c #FF3D00",
"V c #FF4700",
"C c #FF5100",
"Z c #FF6D00",
"A c #FF7500",
"S c #FF7600",
"D c #5B895B",
"F c #FF8800",
"G c #FFA200",
"H c #FFAE00",
"J c #FFB500",
"K c #FFB800",
/* pixels */
"                                ",
"                                ",
"                                ",
"          22++  ++              ",
"         2xbCs++sd+             ",
"        +a0xb*s00002            ",
"        op*xd+0MNNSS2           ",
"       +5d*4s1xnbCCFG2          ",
"       +5s*41fxbbSCFJG2         ",
"       2;*i4<fvbbCCFFK2         ",
"      2C6*i1effbnbCHFFG2        ",
"      2bC*;1evfbVbCCFJFS2       ",
"      $xb0;:8ffbbbZCFFFS2       ",
"     O2gx*;#8efxbbbCCFCCN2      ",
"     $29*d*$cefvbmbCZCCbN2      ",
"     $qa+iD$8effbbbbCCbbB2      ",
"      $7+hid:9effbVbbbVbM2      ",
"      +5p<6s$29ffvhbmbnbxM2     ",
"      +571lid$29fffhnbbxxM2     ",
"       .50h;sd$19effhVxxvk&     ",
"       +=<hlis*$29efffffz&      ",
"       +;$fhli*i$q8eefffj&      ",
"       +;<wwh6s*4$#r8eveu&      ",
"        $28wg@55+=s#1299y&      ",
"         &198g;5+;57,<2y&       ",
"          &OO..++1gx&p<y&       ",
"                  ,,x7po        ",
"                    ,+o         ",
"                                ",
"                                ",
"                                ",
"                                "
};
