/* XPM */
static char *_43bbf87154747beebf15fccedcab19crD2cbPZuvCFoJ6NL[] = {
/* columns rows colors chars-per-pixel */
"32 32 39 1 ",
"  c None",
". c #2E1E22",
"X c #760000",
"o c #5C2E00",
"O c #4D3B39",
"+ c #534721",
"@ c #444444",
"# c #565657",
"$ c #77584A",
"% c #705654",
"& c #6D6D6E",
"* c #767678",
"= c #AD0000",
"- c #FF2627",
"; c #964F00",
": c #8B5E4A",
"> c #9D704C",
", c #A77E5D",
"< c #8F7772",
"1 c #C79D00",
"2 c #E3B700",
"3 c #FFD600",
"4 c #D7906E",
"5 c #1A5586",
"6 c #286E9F",
"7 c #288DCB",
"8 c #858587",
"9 c #9F8781",
"0 c #928A8C",
"q c #979799",
"w c #B89D92",
"e c #B7A099",
"r c #B7B7BB",
"t c #EEBE93",
"y c #FFE1AF",
"u c gray85",
"i c #D9D9DD",
"p c gray95",
"a c white",
/* pixels */
"         OOOO   OOOO            ",
"          O<%OOO%<%OOOOOO       ",
"      OOOOOO<<%<<%Oe<<%O        ",
"       O%<e%%<<e%<e<%%OOO       ",
"      OOO%<e<<e<<<<<<<<<%O      ",
"     O%<<<<<<<<<<<<e<<%OO       ",
"    O%<%<e<<<e<<<<%<e<<<%O      ",
"   OOOO<e<<X<ee%<e<%<%%<<%O     ",
"     O<%e<%=%<e%<e<=%<X=O<%O    ",
"    O%%O<<X-=<<=<<<-=%=-XOO     ",
"    O%O+%<=--%<-%<%-=XX=X%O     ",
"     O +t%tyyy%y%%%%<%%-=%%O    ",
"       +tty+++yy<%%%<<%--=%O    ",
"       +tyyi.uyy<<ty<<<---OO    ",
"       +tyy0.pyy<t>y<<<=---O    ",
"       +4yyooayy<y>t%<<=---X    ",
"       +>ty;;yyy<t4+%<%%=---    ",
"        +4tyyyyyt44%%%%%=---X   ",
"         +>44ttt44>%O%O%O-XX=   ",
"          +++++++**O O O X===   ",
"          *riiaaaiir*     ==    ",
"         +12aaairirir*          ",
"          +36ai@*rqiir*         ",
"          @367+ww##airr*        ",
"          @8:+,,,9&airr**       ",
"          @#5+,,,$+airrr*       ",
"          +1#+::$+&air*r*       ",
"         +::13+++13air**        ",
"         +:::++99,airr*         ",
"          +++  +,*ir**          ",
"                ++**            ",
"                                "
};
