/* XPM */
static char *_1dc01fd6dde45beaa1b55a25d7763a3TzYjkhmtTHSRjek7[] = {
/* columns rows colors chars-per-pixel */
"31 32 38 1 ",
"  c None",
". c #2E1E22",
"X c #760000",
"o c #5C2E00",
"O c #4D3B39",
"+ c #534721",
"@ c #444444",
"# c #565657",
"$ c #77584A",
"% c #705654",
"& c #6D6D6E",
"* c #767678",
"= c #AD0000",
"- c #FF2627",
"; c #964F00",
": c #8B5E4A",
"> c #9D704C",
", c #A77E5D",
"< c #8F7772",
"1 c #C79D00",
"2 c #E3B700",
"3 c #FFD600",
"4 c #FFFC00",
"5 c #D7906E",
"6 c #286E9F",
"7 c #288DCB",
"8 c #858587",
"9 c #928A8C",
"0 c #979799",
"q c #B89D92",
"w c #B7A099",
"e c #B7B7BB",
"r c #EEBE93",
"t c #FFE1AF",
"y c gray85",
"u c #D9D9DD",
"i c gray95",
"p c white",
/* pixels */
"            OOOO   OOOO        ",
"       OOOOOO%<%OOO%<O         ",
"        O%<<wO%<<%<<OOOOOO     ",
"       OOO%%<w<%w<<%%w<%O      ",
"      O%<<<<<<<<<w<<w<%OOO     ",
"       OO%<<w<<<<<<<<<<<<%O    ",
"      O%<<<w<%<<<<w<<<w<%<%O   ",
"     O%<<%%<%<w<%ww<X<<w<OOOO  ",
"    O%<O=X<%=<w<%w<%=%<w%<O    ",
"     OOX-=%=-<<<=<<=-X<<O%%O   ",
"     O%X=XX=-%<%-<%--=<%+O%O   ",
"    O%%=-%%<%%%%t%tttr%r+ O    ",
"    O%=--%<<%%%<tt+++trr+      ",
"    OO---<<<tr<<tty.uttr+      ",
"    O=--=<<<t>r<tti.9ttr+      ",
"    X==-=<<%r>t<ttpoott5+      ",
"    ====%%<%+5r<ttt;;tr>+      ",
"   X====%%%%%55rtttttr5+       ",
"   XXX=O%O%O%>55rrr55>+        ",
"   XXXX O O*O**+++++++         ",
"    XX    *eeeupppuue*         ",
"        **uu0euuuppp21+        ",
"      **epu**0e@7up63+         ",
"     **epue*q#+677763@         ",
"    **eupe*,,+::::::8@         ",
"    **upp*,,:+677776#@         ",
"   **eppu*::+&&&&&&&3+         ",
"   **eppe*++11333444q+         ",
"    **ep** +::+++$::,,+        ",
"     **u*   +++  +$,,,+        ",
"      **          ++++         ",
"                               "
};
