/* XPM */
static char *be0c0435204b40fb8bd7d2186e3292a3Rjd5V5EDPc9WxRVr[] = {
/* columns rows colors chars-per-pixel */
"32 32 6 1 ",
"  c None",
". c #3D253B",
"X c #523B40",
"o c #606060",
"O c #9A8571",
"+ c #A7ACBA",
/* pixels */
"                                ",
"                                ",
"                                ",
"        X   OOOOOXoO            ",
"  oOO     XXX..oOOXOOO          ",
" oXOO   +oo..OOoXoO+++OO        ",
"  Xo   +XooXOOO+++OoO+++O       ",
"      +XooOooO++++++o++++O   O+ ",
"     +XoooOOX+++++++oOooo+O  XO ",
"     +.ooOOOXoo+++oooO++++X     ",
"    oX.ooOOX++oooo+++o+++++X    ",
"    +o.oOOOX+++Oo++++o+++++O    ",
"   oOo.oOOOX++++o++++o+++++OO   ",
"   oOo.XOOoX+++++o+++o+++++OX   ",
"   oooX.XXXXo+++++oooooO+++OX   ",
"   o.oo.OOOOX+++++OO+++OooOoo   ",
"   o.oo.OOOOX+++++o++++++oXXO   ",
"   +.oXXoOOoXO++++o++++++XOoO   ",
"   +X..ooOOXoOO+++o+++++OXOoX   ",
"   oOo.oooOXOOOOO+o+++OOoXoOX   ",
"    +o.ooXoXoOOOOoXOOOOOXooO    ",
"    +....X.OXoOoXoOXoOOOXooX    ",
"     ooooooooXXXOOOOoXX..o+     ",
"     +Xooooo.ooOOOOOO.ooX++     ",
"      oXoooo..ooooooXXoo+o      ",
"       oXooXXoX......oo++   X   ",
"        +o..o.XoooX.oo+o        ",
"    o     +oXX....OOoo          ",
"            ++++++++            ",
"                                ",
"                                ",
"                                "
};
